# xmcd
#
# Track frame offsets:
#	150
#	15654
#	32465
#	53761
#	74114
#	95933
#	117623
#	137283
#	158949
#	180956
#	195977
#	216184
#
# Disc length: 3132 seconds
#
# Revision: 0
# Processed by: cddbd v1.5.2PL0 Copyright (c) Steve Scherf et al.
# Submitted via: audiograbber 1.83.01
#
DISCID=a50c3a0c
DTITLE=Bon Jovi - 100,000,000 Bon Jovi fans can't be wrong CD2
DYEAR=2004
DGENRE=Rock
TTITLE0=Garageland
TTITLE1=Starting all over again
TTITLE2=Maybe someday
TTITLE3=Last chance train
TTITLE4=The fire inside
TTITLE5=Every beat of my heart
TTITLE6=Rich man living in a poor man's house
TTITLE7=The one that got away
TTITLE8=You can sleep while I dream
TTITLE9=Outlaws of love
TTITLE10=Good guys don't always wear white
TTITLE11=We rule the night
EXTD=YEAR: 2004
EXTT0=
EXTT1=
EXTT2=
EXTT3=
EXTT4=
EXTT5=
EXTT6=
EXTT7=
EXTT8=
EXTT9=
EXTT10=
EXTT11=
PLAYORDER=
